<?xml version="1.0" encoding="utf-8"?>
<!-- Generator: Adobe Illustrator 24.2.0, SVG Export Plug-In . SVG Version: 6.00 Build 0)  -->
<svg version="1.1" id="Layer_1" xmlns="http://www.w3.org/2000/svg" xmlns:xlink="http://www.w3.org/1999/xlink" x="0px" y="0px"
	 viewBox="0 0 1000 1000" style="enable-background:new 0 0 1000 1000;" xml:space="preserve">
<style type="text/css">
	.st0{fill:#48B48C;}
	.st1{clip-path:url(#SVGID_2_);fill:#49B48C;}
	.st2{clip-path:url(#SVGID_2_);}
	.st3{clip-path:url(#SVGID_2_);fill:url(#SVGID_3_);}
	.st4{clip-path:url(#SVGID_2_);fill:url(#SVGID_4_);}
	.st5{clip-path:url(#SVGID_2_);fill:url(#SVGID_5_);}
	.st6{clip-path:url(#SVGID_2_);fill:url(#SVGID_6_);}
</style>
<g>
	<g>
		<path class="st0" d="M477.27,21.8l-36.99,36.99c-13.96,13.96-14.83,31.13-2.23,43.73l41.07,41.07
			c12.61,12.61,29.77,11.73,43.73-2.23l36.99-36.99c13.52-13.52,14.27-30.95,1.86-43.36l-41.07-41.07
			C508.22,7.53,490.79,8.28,477.27,21.8z"/>
		<g>
			<defs>
				<path id="SVGID_1_" d="M967.41,90.35c-14.06-23.77-33.98-43.69-57.8-57.71c-12.98-7.71-27.13-13.66-42.1-17.51
					C854.43,11.77,840.78,10,826.67,10c-42.15,0-80.53,15.97-109.48,42.15c-0.14,0.09-0.23,0.18-0.32,0.27L500.22,269.1
					L295.33,64.21l-0.17-0.04l-6.35-6.35C259.26,28.28,218.43,10,173.33,10c-14.11,0-27.77,1.77-40.83,5.13
					c-14.97,3.86-29.13,9.8-42.1,17.51C66.62,46.66,46.75,66.53,32.69,90.26C18.26,114.62,10,143.03,10,173.33v653.33
					c0,14.11,1.77,27.77,5.13,40.83c3.86,14.97,9.8,29.13,17.47,42.15c14.06,23.77,33.98,43.69,57.8,57.71
					c12.98,7.71,27.13,13.66,42.1,17.51c13.07,3.36,26.72,5.13,40.83,5.13h60.8h592.54c14.11,0,27.77-1.77,40.83-5.13
					c15.02-3.9,29.22-9.85,42.24-17.56c23.73-14.06,43.6-33.94,57.67-57.67c7.67-13.02,13.61-27.18,17.47-42.15
					c3.36-13.07,5.13-26.72,5.13-40.83V173.33C990,143.03,981.74,114.67,967.41,90.35z M471.75,529.03
					c-7.4-7.35-11.98-17.6-11.98-28.86c0-11.25,4.58-21.51,11.98-28.86l28.71-28.75L528.85,471c7.4,7.35,11.98,17.6,11.98,28.86
					c0,11.25-4.58,21.51-11.98,28.86l-28.71,28.71L471.75,529.03z M363.55,867.5h-173.3h-18.83c-21.55-1-38.75-18.6-38.93-40.33
					V173.33c0-22.55,18.28-40.83,40.83-40.83c11.3,0,21.46,4.58,28.86,11.98l111.88,111.84l41.74,41.74l0.06-0.06l57.51,57.49
					l0.23,0.24l-5.35,5.35c-1.87,1.98-4.19,4.46-6.75,7.2l-16.38,16.38c-7.58,7.58-14.38,15.92-20.36,24.86
					c-2.49,3.1-4.4,5.66-5.43,7.41c-14.43,24.36-22.68,52.77-22.68,83.07c0,30.31,8.26,58.66,22.59,82.98
					c6.08,10.21,13.16,19.69,21.23,28.31l32.9,32.9l-141.2,141.23h173.18l54.63-54.63L636.7,867.5H363.55z M867.5,826.67
					c0,22.55-18.28,40.83-40.83,40.83c-10.53,0-20.63-4.18-28.08-11.63L586.75,644.03l30.07-30.07c9.17-9.35,17.2-19.78,23.86-31.12
					c14.38-24.32,22.64-52.68,22.64-82.98s-8.26-58.66-22.64-82.98c-7.03-11.89-15.52-22.82-25.23-32.53l-28.39-28.39l0.15-0.15
					l99.36-99.32l110.48-110.43c0.86-0.95,1.81-1.91,2.77-2.77l-0.51-0.17c7.32-6.64,16.99-10.7,27.69-10.61
					c22.65,0.18,40.5,19.55,40.5,42.2V826.67z"/>
			</defs>
			<clipPath id="SVGID_2_">
				<use xlink:href="#SVGID_1_"  style="overflow:visible;"/>
			</clipPath>
			<path class="st1" d="M663.32,499.86c0,30.31-8.26,58.66-22.64,82.98c-6.67,11.34-14.7,21.78-23.86,31.12L445.37,785.42H272.19
				l256.66-256.71c7.39-7.35,11.98-17.6,11.98-28.86c0-11.25-4.58-21.51-11.98-28.86l-28.86-28.9l-82.98-82.94l-3.63-3.67
				l-99.36-99.32L203.54,145.74c-0.86-0.95-1.81-1.91-2.77-2.77l-68.28-68.33l9.62-45.78l50.36,14.25l102.85,21.1l320.13,320.13
				c9.71,9.71,18.19,20.64,25.23,32.53C655.07,441.19,663.32,469.55,663.32,499.86z"/>
			<path class="st2" d="M757.35,185.72"/>
			<path class="st1" d="M967.41,90.35c-14.06-23.77-33.98-43.69-57.8-57.71c-12.98-7.71-27.13-13.66-42.1-17.51
				C854.43,11.77,840.78,10,826.67,10c-42.15,0-80.53,15.97-109.48,42.15c-0.14,0.09-0.23,0.18-0.32,0.27L408.26,361.08
				c-1.87,1.98-4.19,4.46-6.75,7.2l-16.38,16.38c-7.58,7.58-14.38,15.92-20.36,24.86c-2.49,3.1-4.39,5.66-5.43,7.41
				c-14.43,24.36-22.69,52.77-22.69,83.07c0,30.31,8.26,58.66,22.59,82.98c6.08,10.21,13.16,19.69,21.23,28.31L636.7,867.5H363.55
				h-173.3h-18.83c-21.55-1-38.75-18.6-38.93-40.33V173.33c0-22.55,18.28-40.83,40.83-40.83c11.3,0,21.46,4.58,28.86,11.98
				l111.88,111.84l41.74,41.74l86.61-86.61L288.8,57.82C259.26,28.28,218.43,10,173.33,10c-14.11,0-27.77,1.77-40.83,5.13
				c-14.97,3.86-29.13,9.8-42.1,17.51C66.62,46.66,46.75,66.53,32.69,90.26C18.26,114.62,10,143.03,10,173.33v653.33
				c0,14.11,1.77,27.77,5.13,40.83c3.86,14.97,9.8,29.13,17.47,42.15c14.06,23.77,33.98,43.69,57.8,57.71
				c12.98,7.71,27.13,13.66,42.1,17.51c13.07,3.36,26.72,5.13,40.83,5.13h60.8h592.54c14.11,0,27.77-1.77,40.83-5.13
				c15.02-3.9,29.22-9.85,42.24-17.56c23.73-14.06,43.6-33.94,57.67-57.67c7.67-13.02,13.61-27.18,17.47-42.15
				c3.36-13.07,5.13-26.72,5.13-40.83V173.33C990,143.03,981.74,114.67,967.41,90.35z M867.5,826.67
				c0,22.55-18.28,40.83-40.83,40.83h0c-10.53,0-20.63-4.18-28.08-11.63L471.75,529.03c-7.4-7.35-11.98-17.6-11.98-28.86
				c0-11.25,4.58-21.51,11.98-28.86l28.86-28.9l82.98-82.94l3.63-3.67l99.36-99.32l110.48-110.43c0.86-0.95,1.81-1.91,2.77-2.77
				l-0.51-0.17c7.32-6.64,16.99-10.7,27.69-10.61c22.65,0.18,40.5,19.55,40.5,42.2V826.67z"/>
			<linearGradient id="SVGID_3_" gradientUnits="userSpaceOnUse" x1="420.97" y1="276.6367" x2="456.7127" y2="312.3794">
				<stop  offset="1.065558e-07" style="stop-color:#49B48C"/>
				<stop  offset="1" style="stop-color:#3A9E76"/>
			</linearGradient>
			<polygon class="st3" points="499.76,268.99 413.32,355.43 378.57,320.68 465.01,234.24 			"/>
			
				<linearGradient id="SVGID_4_" gradientUnits="userSpaceOnUse" x1="2338.9065" y1="1572.1953" x2="2374.6492" y2="1607.938" gradientTransform="matrix(-1 0 0 -1 2918.4797 2007.4352)">
				<stop  offset="1.065558e-07" style="stop-color:#49B48C"/>
				<stop  offset="1" style="stop-color:#3A9E76"/>
			</linearGradient>
			<polygon class="st4" points="500.78,442.89 587.22,356.45 621.97,391.2 535.53,477.64 			"/>
			
				<linearGradient id="SVGID_5_" gradientUnits="userSpaceOnUse" x1="2339.6304" y1="1284.3347" x2="2375.373" y2="1320.0775" gradientTransform="matrix(-1 0 0 -1 2918.4797 2007.4352)">
				<stop  offset="1.065558e-07" style="stop-color:#49B48C"/>
				<stop  offset="1" style="stop-color:#3A9E76"/>
			</linearGradient>
			<polygon class="st5" points="500.06,730.75 586.5,644.31 621.25,679.06 534.81,765.5 			"/>
			
				<linearGradient id="SVGID_6_" gradientUnits="userSpaceOnUse" x1="474.8693" y1="491.9077" x2="510.612" y2="527.6504" gradientTransform="matrix(1 0 0 1 -53.8511 73.3617)">
				<stop  offset="1.065558e-07" style="stop-color:#49B48C"/>
				<stop  offset="1" style="stop-color:#3A9E76"/>
			</linearGradient>
			<polygon class="st6" points="499.81,557.62 413.37,644.06 378.62,609.31 465.06,522.87 			"/>
		</g>
	</g>
</g>
</svg>
