<?xml version="1.0" encoding="utf-8"?>
<!-- Generator: Adobe Illustrator 24.2.0, SVG Export Plug-In . SVG Version: 6.00 Build 0)  -->
<svg version="1.1" id="Layer_1" xmlns="http://www.w3.org/2000/svg" xmlns:xlink="http://www.w3.org/1999/xlink" x="0px" y="0px"
	 viewBox="0 0 520 520" style="enable-background:new 0 0 520 520;" xml:space="preserve">
<style type="text/css">
	.st0{fill:#00CF95;}
	.st1{fill:#1D1D1B;}
	.st2{clip-path:url(#SVGID_2_);fill:#00CF95;}
	.st3{clip-path:url(#SVGID_2_);fill:url(#SVGID_3_);}
	.st4{clip-path:url(#SVGID_2_);fill:url(#SVGID_4_);}
	.st5{clip-path:url(#SVGID_2_);fill:url(#SVGID_5_);}
	.st6{clip-path:url(#SVGID_2_);fill:url(#SVGID_6_);}
</style>
<g>
	<path class="st0" d="M248.1,10.2l-19.3,19.3c-7.3,7.3-7.8,16.3-1.2,22.8l21.5,21.5c6.6,6.6,15.6,6.1,22.8-1.2l19.3-19.3
		c7.1-7.1,7.5-16.2,1-22.7L270.8,9.2C264.3,2.7,255.2,3.1,248.1,10.2z"/>
	<path class="st1" d="M394.5,95.8"/>
	<g>
		<defs>
			<path id="SVGID_1_" d="M504.2,46c-7.3-12.4-17.8-22.8-30.2-30.2c-6.8-4-14.2-7.1-22-9.1C445.2,4.9,438,4,430.7,4
				c-22,0-42.1,8.3-57.2,22c-0.1,0-0.1,0.1-0.2,0.1L260.1,139.4l-107-107l-0.1,0l-3.3-3.3C134.2,13.6,112.9,4,89.3,4
				C82,4,74.8,4.9,68,6.7c-7.8,2-15.2,5.1-22,9.1c-12.4,7.3-22.8,17.7-30.2,30.1C8.3,58.7,4,73.5,4,89.3v341.3
				c0,7.4,0.9,14.5,2.7,21.3c2,7.8,5.1,15.2,9.1,22c7.3,12.4,17.8,22.8,30.2,30.2c6.8,4,14.2,7.1,22,9.1c6.8,1.8,14,2.7,21.3,2.7
				h31.8h309.6c7.4,0,14.5-0.9,21.3-2.7c7.8-2,15.3-5.1,22.1-9.2c12.4-7.3,22.8-17.7,30.1-30.1c4-6.8,7.1-14.2,9.1-22
				c1.8-6.8,2.7-14,2.7-21.3V89.3C516,73.5,511.7,58.7,504.2,46z M245.2,275.2c-3.9-3.8-6.3-9.2-6.3-15.1c0-5.9,2.4-11.2,6.3-15.1
				l15-15l14.8,14.9c3.9,3.8,6.3,9.2,6.3,15.1c0,5.9-2.4,11.2-6.3,15.1l-15,15L245.2,275.2z M188.7,452H98.2h-9.8
				c-11.3-0.5-20.2-9.7-20.3-21.1V89.3C68,77.6,77.6,68,89.3,68c5.9,0,11.2,2.4,15.1,6.3l58.5,58.4l21.8,21.8l0,0l30,30l0.1,0.1
				l-2.8,2.8c-1,1-2.2,2.3-3.5,3.8l-8.6,8.6c-4,4-7.5,8.3-10.6,13c-1.3,1.6-2.3,3-2.8,3.9c-7.5,12.7-11.9,27.6-11.9,43.4
				s4.3,30.6,11.8,43.4c3.2,5.3,6.9,10.3,11.1,14.8l17.2,17.2L141,409.1h90.5l28.5-28.5l71.4,71.4H188.7z M452,430.7
				c0,11.8-9.6,21.3-21.3,21.3c-5.5,0-10.8-2.2-14.7-6.1L305.3,335.2l15.7-15.7c4.8-4.9,9-10.3,12.5-16.3
				c7.5-12.7,11.8-27.5,11.8-43.4s-4.3-30.6-11.8-43.4c-3.7-6.2-8.1-11.9-13.2-17l-14.8-14.8l0.1-0.1l51.9-51.9l57.7-57.7
				c0.5-0.5,0.9-1,1.4-1.4l-0.3-0.1c3.8-3.5,8.9-5.6,14.5-5.5c11.8,0.1,21.2,10.2,21.2,22V430.7z"/>
		</defs>
		<clipPath id="SVGID_2_">
			<use xlink:href="#SVGID_1_"  style="overflow:visible;"/>
		</clipPath>
		<path class="st2" d="M345.3,259.9c0,15.8-4.3,30.6-11.8,43.4c-3.5,5.9-7.7,11.4-12.5,16.3l-89.6,89.6H141L275.1,275
			c3.9-3.8,6.3-9.2,6.3-15.1c0-5.9-2.4-11.2-6.3-15.1L260,229.7l-43.4-43.3l-1.9-1.9l-51.9-51.9l-57.7-57.7c-0.5-0.5-0.9-1-1.4-1.4
			L68,37.8l5-23.9l26.3,7.4l53.7,11l167.3,167.3c5.1,5.1,9.5,10.8,13.2,17C341,229.3,345.3,244.1,345.3,259.9z"/>
		<path class="st2" d="M504.2,46c-7.3-12.4-17.8-22.8-30.2-30.2c-6.8-4-14.2-7.1-22-9.1C445.2,4.9,438,4,430.7,4
			c-22,0-42.1,8.3-57.2,22c-0.1,0-0.1,0.1-0.2,0.1L212.1,187.4c-1,1-2.2,2.3-3.5,3.8l-8.6,8.6c-4,4-7.5,8.3-10.6,13
			c-1.3,1.6-2.3,3-2.8,3.9c-7.5,12.7-11.9,27.6-11.9,43.4c0,15.8,4.3,30.6,11.8,43.4c3.2,5.3,6.9,10.3,11.1,14.8L331.4,452H188.7
			H98.2h-9.8c-11.3-0.5-20.2-9.7-20.3-21.1V89.3C68,77.6,77.6,68,89.3,68c5.9,0,11.2,2.4,15.1,6.3l58.5,58.4l21.8,21.8l45.3-45.3
			L149.7,29C134.2,13.6,112.9,4,89.3,4C82,4,74.8,4.9,68,6.7c-7.8,2-15.2,5.1-22,9.1c-12.4,7.3-22.8,17.7-30.2,30.1
			C8.3,58.7,4,73.5,4,89.3v341.3c0,7.4,0.9,14.5,2.7,21.3c2,7.8,5.1,15.2,9.1,22c7.3,12.4,17.8,22.8,30.2,30.2
			c6.8,4,14.2,7.1,22,9.1c6.8,1.8,14,2.7,21.3,2.7h31.8h309.6c7.4,0,14.5-0.9,21.3-2.7c7.8-2,15.3-5.1,22.1-9.2
			c12.4-7.3,22.8-17.7,30.1-30.1c4-6.8,7.1-14.2,9.1-22c1.8-6.8,2.7-14,2.7-21.3V89.3C516,73.5,511.7,58.7,504.2,46z M452,430.7
			c0,11.8-9.6,21.3-21.3,21.3h0c-5.5,0-10.8-2.2-14.7-6.1L245.2,275.2c-3.9-3.8-6.3-9.2-6.3-15.1c0-5.9,2.4-11.2,6.3-15.1l15.1-15.1
			l43.4-43.3l1.9-1.9l51.9-51.9l57.7-57.7c0.5-0.5,0.9-1,1.4-1.4l-0.3-0.1c3.8-3.5,8.9-5.6,14.5-5.5c11.8,0.1,21.2,10.2,21.2,22
			V430.7z"/>
		<linearGradient id="SVGID_3_" gradientUnits="userSpaceOnUse" x1="218.7108" y1="143.304" x2="237.3846" y2="161.9777">
			<stop  offset="0" style="stop-color:#00CF95"/>
			<stop  offset="1" style="stop-color:#48B38B"/>
		</linearGradient>
		<polygon class="st3" points="259.9,139.3 214.7,184.5 196.6,166.3 241.7,121.2 		"/>
		
			<linearGradient id="SVGID_4_" gradientUnits="userSpaceOnUse" x1="2136.9067" y1="1301.269" x2="2155.5803" y2="1319.9427" gradientTransform="matrix(-1 0 0 -1 2438.4797 1527.4352)">
			<stop  offset="0" style="stop-color:#00CF95"/>
			<stop  offset="1" style="stop-color:#48B38B"/>
		</linearGradient>
		<polygon class="st4" points="260.4,230.2 305.6,185 323.7,203.2 278.6,248.3 		"/>
		
			<linearGradient id="SVGID_5_" gradientUnits="userSpaceOnUse" x1="2137.2849" y1="1150.8766" x2="2155.9587" y2="1169.5503" gradientTransform="matrix(-1 0 0 -1 2438.4797 1527.4352)">
			<stop  offset="0" style="stop-color:#00CF95"/>
			<stop  offset="1" style="stop-color:#48B38B"/>
		</linearGradient>
		<polygon class="st5" points="260,380.6 305.2,335.4 323.3,353.5 278.2,398.7 		"/>
		
			<linearGradient id="SVGID_6_" gradientUnits="userSpaceOnUse" x1="272.5871" y1="220.7383" x2="291.2609" y2="239.412" gradientTransform="matrix(1 0 0 1 -53.8511 73.3617)">
			<stop  offset="0" style="stop-color:#00CF95"/>
			<stop  offset="1" style="stop-color:#48B38B"/>
		</linearGradient>
		<polygon class="st6" points="259.9,290.1 214.7,335.3 196.6,317.1 241.7,271.9 		"/>
	</g>
</g>
</svg>
